<mxfile host="app.diagrams.net" modified="2024-02-14T09:03:49.347Z" agent="Mozilla/5.0 (Windows NT 10.0; Win64; x64; rv:122.0) Gecko/20100101 Firefox/122.0" etag="k2J9YIfbE269e3sEJeA1" version="22.1.21" type="device">
  <diagram name="Seite-1" id="iaykenwsYxNtYI8UrzUc">
    <mxGraphModel dx="819" dy="447" grid="1" gridSize="10" guides="1" tooltips="1" connect="1" arrows="1" fold="1" page="1" pageScale="1" pageWidth="827" pageHeight="1169" math="0" shadow="0">
      <root>
        <mxCell id="0" />
        <mxCell id="1" parent="0" />
        <mxCell id="cT3eSnjIG41jul6boiW4-1" value="&lt;b&gt;Tier&lt;/b&gt;" style="html=1;fontStyle=0" vertex="1" parent="1">
          <mxGeometry x="360" y="170" width="90" height="30" as="geometry" />
        </mxCell>
        <mxCell id="cT3eSnjIG41jul6boiW4-2" value="impft" style="endArrow=none;html=1;endFill=0;verticalAlign=bottom;exitX=1;exitY=0.25;exitDx=0;exitDy=0;entryX=0;entryY=0.25;entryDx=0;entryDy=0;labelBackgroundColor=none;" edge="1" parent="1" source="cT3eSnjIG41jul6boiW4-5" target="cT3eSnjIG41jul6boiW4-1">
          <mxGeometry relative="1" as="geometry">
            <mxPoint x="120" y="240" as="sourcePoint" />
            <mxPoint x="290" y="180" as="targetPoint" />
          </mxGeometry>
        </mxCell>
        <mxCell id="cT3eSnjIG41jul6boiW4-3" value="1" style="resizable=0;html=1;align=left;verticalAlign=bottom;labelBackgroundColor=none;fontSize=8;spacingTop=0;spacingLeft=2;spacing=0;spacingBottom=1;" connectable="0" vertex="1" parent="cT3eSnjIG41jul6boiW4-2">
          <mxGeometry x="-1" relative="1" as="geometry" />
        </mxCell>
        <mxCell id="cT3eSnjIG41jul6boiW4-4" value="&lt;font style=&quot;font-size: 11px;&quot;&gt;&lt;font style=&quot;font-size: 12px;&quot;&gt;&lt;font style=&quot;font-size: 13px;&quot;&gt;&lt;font style=&quot;font-size: 14px;&quot;&gt;&lt;font style=&quot;font-size: 15px;&quot;&gt;&lt;font style=&quot;font-size: 16px;&quot;&gt;&lt;sub&gt;*&lt;/sub&gt;&lt;/font&gt;&lt;/font&gt;&lt;/font&gt;&lt;/font&gt;&lt;/font&gt;&lt;/font&gt;" style="resizable=0;html=1;align=right;verticalAlign=bottom;labelBackgroundColor=none;fontSize=10;spacingLeft=0;spacing=0;spacingBottom=-4;spacingRight=4;spacingTop=0;" connectable="0" vertex="1" parent="cT3eSnjIG41jul6boiW4-2">
          <mxGeometry x="1" relative="1" as="geometry" />
        </mxCell>
        <mxCell id="cT3eSnjIG41jul6boiW4-5" value="&lt;b&gt;Tierarzt&lt;/b&gt;" style="html=1;fontStyle=0" vertex="1" parent="1">
          <mxGeometry x="120" y="170" width="80" height="30" as="geometry" />
        </mxCell>
        <mxCell id="cT3eSnjIG41jul6boiW4-6" value="Jahresuntersuchung" style="endArrow=none;html=1;endFill=0;verticalAlign=top;exitX=1;exitY=0.75;exitDx=0;exitDy=0;entryX=0;entryY=0.75;entryDx=0;entryDy=0;spacing=-3;labelBackgroundColor=none;" edge="1" parent="1" source="cT3eSnjIG41jul6boiW4-5" target="cT3eSnjIG41jul6boiW4-1">
          <mxGeometry relative="1" as="geometry">
            <mxPoint x="200" y="270" as="sourcePoint" />
            <mxPoint x="360" y="270" as="targetPoint" />
            <mxPoint as="offset" />
          </mxGeometry>
        </mxCell>
        <mxCell id="cT3eSnjIG41jul6boiW4-7" value="2" style="resizable=0;html=1;align=left;verticalAlign=bottom;labelBackgroundColor=none;fontSize=8;spacingTop=0;spacingLeft=2;spacing=0;spacingBottom=1;" connectable="0" vertex="1" parent="cT3eSnjIG41jul6boiW4-6">
          <mxGeometry x="-1" relative="1" as="geometry" />
        </mxCell>
        <mxCell id="cT3eSnjIG41jul6boiW4-8" value="&lt;font style=&quot;font-size: 11px;&quot;&gt;&lt;font style=&quot;font-size: 12px;&quot;&gt;&lt;font style=&quot;font-size: 13px;&quot;&gt;&lt;font style=&quot;font-size: 14px;&quot;&gt;&lt;font style=&quot;font-size: 15px;&quot;&gt;&lt;font style=&quot;font-size: 16px;&quot;&gt;&lt;sub&gt;*&lt;/sub&gt;&lt;/font&gt;&lt;/font&gt;&lt;/font&gt;&lt;/font&gt;&lt;/font&gt;&lt;/font&gt;" style="resizable=0;html=1;align=right;verticalAlign=bottom;labelBackgroundColor=none;fontSize=10;spacingLeft=0;spacing=0;spacingBottom=-4;spacingRight=4;spacingTop=0;" connectable="0" vertex="1" parent="cT3eSnjIG41jul6boiW4-6">
          <mxGeometry x="1" relative="1" as="geometry" />
        </mxCell>
      </root>
    </mxGraphModel>
  </diagram>
</mxfile>
